<svg width="100" height="100" viewBox="0 0 100 100" fill="none" xmlns="http://www.w3.org/2000/svg">
<path d="M43.75 6.25V12.9167M15 41.6667H8.33337M22.7134 20.6307L17.9993 15.9167M64.7909 20.6307L69.5049 15.9167M79.1667 41.6667H72.5M27.0837 41.667C27.0837 32.4622 34.5456 25.0003 43.7504 25.0003C50.0254 25.0003 55.4905 28.4681 58.3337 33.5919M25 91.6667C15.7953 91.6667 8.33337 84.2047 8.33337 75C8.33337 65.7953 15.7953 58.3333 25 58.3333C26.9342 58.3333 28.7913 58.6628 30.5185 59.2686C33.5026 51.4148 41.0995 45.8333 50 45.8333C58.9006 45.8333 66.4975 51.4148 69.4816 59.2686C71.2088 58.6628 73.0659 58.3333 75 58.3333C84.2048 58.3333 91.6667 65.7953 91.6667 75C91.6667 84.2047 84.2048 91.6667 75 91.6667C55.6655 91.6667 41.1634 91.6667 25 91.6667Z" stroke="black" stroke-width="2" stroke-linecap="round" stroke-linejoin="round"/>
</svg>
