<svg width="222" height="222" viewBox="0 0 222 222" fill="none" xmlns="http://www.w3.org/2000/svg">
<path d="M97.125 13.875V28.675M33.3 92.5H18.5M50.4236 45.8002L39.9584 35.335M143.836 45.8002L154.301 35.335M175.75 92.5H160.95M60.1257 92.5007C60.1257 72.0661 76.6911 55.5007 97.1257 55.5007C111.056 55.5007 123.189 63.1993 129.501 74.574M55.5 203.5C35.0655 203.5 18.5 186.935 18.5 166.5C18.5 146.065 35.0655 129.5 55.5 129.5C59.7937 129.5 63.9166 130.231 67.7509 131.576C74.3756 114.141 91.2408 101.75 111 101.75C130.759 101.75 147.624 114.141 154.249 131.576C158.083 130.231 162.206 129.5 166.5 129.5C186.935 129.5 203.5 146.065 203.5 166.5C203.5 186.935 186.935 203.5 166.5 203.5C123.577 203.5 91.3827 203.5 55.5 203.5Z" stroke="black" stroke-width="2" stroke-linecap="round" stroke-linejoin="round"/>
</svg>
