<svg width="100" height="100" viewBox="0 0 100 100" fill="none" xmlns="http://www.w3.org/2000/svg">
<path d="M54.1667 87.5002H25M79.1667 75.0002H41.6667M29.1667 75.0002H20.8334M75 87.5002H66.6667M29.1667 62.5002C17.6608 62.5002 8.33337 53.1728 8.33337 41.6668C8.33337 30.1609 17.6608 20.8335 29.1667 20.8335C29.3048 20.8335 29.4426 20.8348 29.5801 20.8375C33.3725 13.4152 41.0928 8.3335 50 8.3335C60.4969 8.3335 69.3453 15.3908 72.0595 25.0194C72.3436 25.0066 72.6294 25.0002 72.9167 25.0002C83.2721 25.0002 91.6667 33.3948 91.6667 43.7502C91.6667 54.1055 83.2721 62.5002 72.9167 62.5002C57.2643 62.5002 46.8134 62.5002 29.1667 62.5002Z" stroke="black" stroke-width="2" stroke-linecap="round" stroke-linejoin="round"/>
</svg>
