<svg width="222" height="222" viewBox="0 0 222 222" fill="none" xmlns="http://www.w3.org/2000/svg">
<path d="M120.25 194.25H55.5M175.75 166.5H92.5M64.75 166.5H46.25M166.5 194.25H148M64.75 138.75C39.2068 138.75 18.5 118.043 18.5 92.5C18.5 66.9568 39.2068 46.25 64.75 46.25C65.0566 46.25 65.3625 46.253 65.6677 46.2589C74.0869 29.7813 91.226 18.5 111 18.5C134.303 18.5 153.947 34.1672 159.972 55.5428C160.603 55.5144 161.237 55.5 161.875 55.5C184.864 55.5 203.5 74.1361 203.5 97.125C203.5 120.114 184.864 138.75 161.875 138.75C127.127 138.75 103.926 138.75 64.75 138.75Z" stroke="black" stroke-width="2" stroke-linecap="round" stroke-linejoin="round"/>
</svg>
